<svg width="120" height="40" viewBox="0 0 120 40" fill="none" xmlns="http://www.w3.org/2000/svg">
  <!-- Background circle for the icon -->
  <circle cx="20" cy="20" r="16" fill="currentColor" opacity="0.1"/>
  
  <!-- Gear/Cog icon representing manufacturing -->
  <path d="M20 8C19.4477 8 19 8.44772 19 9V10.0847C17.8477 10.2787 16.7787 10.7213 15.8579 11.3579L15.1421 10.6421C14.7516 10.2516 14.1184 10.2516 13.7279 10.6421C13.3374 11.0326 13.3374 11.6658 13.7279 12.0563L14.4437 12.7721C13.8071 13.6929 13.3645 14.7619 13.1705 15.9142H12C11.4477 15.9142 11 16.3619 11 16.9142C11 17.4665 11.4477 17.9142 12 17.9142H13.1705C13.3645 19.0665 13.8071 20.1355 14.4437 21.0563L13.7279 21.7721C13.3374 22.1626 13.3374 22.7958 13.7279 23.1863C14.1184 23.5768 14.7516 23.5768 15.1421 23.1863L15.8579 22.4705C16.7787 23.1071 17.8477 23.5497 19 23.7437V24.8284C19 25.3807 19.4477 25.8284 20 25.8284C20.5523 25.8284 21 25.3807 21 24.8284V23.7437C22.1523 23.5497 23.2213 23.1071 24.1421 22.4705L24.8579 23.1863C25.2484 23.5768 25.8816 23.5768 26.2721 23.1863C26.6626 22.7958 26.6626 22.1626 26.2721 21.7721L25.5563 21.0563C26.1929 20.1355 26.6355 19.0665 26.8295 17.9142H28C28.5523 17.9142 29 17.4665 29 16.9142C29 16.3619 28.5523 15.9142 28 15.9142H26.8295C26.6355 14.7619 26.1929 13.6929 25.5563 12.7721L26.2721 12.0563C26.6626 11.6658 26.6626 11.0326 26.2721 10.6421C25.8816 10.2516 25.2484 10.2516 24.8579 10.6421L24.1421 11.3579C23.2213 10.7213 22.1523 10.2787 21 10.0847V9C21 8.44772 20.5523 8 20 8ZM20 14C22.2091 14 24 15.7909 24 18C24 20.2091 22.2091 22 20 22C17.7909 22 16 20.2091 16 18C16 15.7909 17.7909 14 20 14Z" fill="currentColor"/>
  
  <!-- Text "ProdEase" -->
  <text x="44" y="16" font-family="system-ui, -apple-system, sans-serif" font-size="14" font-weight="700" fill="currentColor">
    Prod
  </text>
  <text x="44" y="30" font-family="system-ui, -apple-system, sans-serif" font-size="14" font-weight="300" fill="currentColor" opacity="0.8">
    Ease
  </text>
</svg>
